<svg version="1.0" xmlns="http://www.w3.org/2000/svg"
 width="25.000000pt" height="25.000000pt" viewBox="0 0 512 512"
 preserveAspectRatio="xMidYMid meet">
<g transform="translate(0.000000,573.000000) scale(0.100000,-0.100000)"
fill="green" stroke="none">
<path d="M6285 5293 c-11 -3 -92 -27 -181 -53 -692 -208 -1387 -621 -2144
-1272 -450 -387 -1025 -965 -1644 -1653 -109 -121 -201 -221 -205 -223 -3 -1
-17 28 -30 64 -37 105 -174 370 -243 474 -79 119 -215 262 -313 329 -367 254
-745 162 -981 -239 -24 -41 -44 -78 -44 -82 0 -5 19 -8 43 -8 211 -1 407 -178
552 -498 29 -64 76 -166 105 -227 111 -235 217 -500 415 -1037 219 -593 234
-631 266 -660 21 -20 40 -28 67 -28 63 0 91 27 171 166 466 811 1057 1653
1672 2384 501 596 1079 1181 1649 1670 277 237 643 523 902 703 148 103 191
165 132 187 -26 10 -152 12 -189 3z"/>
</g>
</svg>